<svg width="469" height="86" viewBox="0 0 469 86" fill="none" xmlns="http://www.w3.org/2000/svg">
<g opacity="0.1">
<mask id="mask0" mask-type="alpha" maskUnits="userSpaceOnUse" x="0" y="0" width="469" height="86">
<rect width="469" height="86" fill="#FFF6EB"/>
</mask>
<g mask="url(#mask0)">
<path d="M493.434 257.27L311.274 75.631L128.259 257.27C79.5115 305.651 53 370.158 53 438.061C53 466.92 57.2759 495.778 67.5385 524.637C70.1041 532.276 73.525 539.915 76.9458 547.554C123.983 640.92 213.78 694.393 311.274 694.393C409.623 694.393 498.566 640.92 545.602 547.554C549.023 539.915 552.444 532.276 555.01 524.637C587.508 426.178 561.851 326.022 493.434 257.27ZM392.519 609.515C386.533 612.061 380.546 615.456 373.705 617.154C353.18 623.944 331.799 627.339 310.419 627.339C236.871 627.339 172.73 587.447 138.521 520.393C135.1 514.451 132.535 507.661 130.824 500.871C107.734 429.573 124.838 356.578 176.151 305.651L289.894 192.763L310.419 172.392L330.944 192.763L451.529 313.29C464.357 326.022 473.765 339.602 480.606 354.032C525.933 451.641 487.448 561.134 392.519 609.515Z" fill="#8BD860"/>
<path d="M172.73 124.01C136.811 124.01 100.892 113.824 69.249 94.3023L53 84.1169L62.4074 67.1413C88.9189 19.6095 133.39 -14.3418 186.413 -27.9223C239.436 -41.5028 294.17 -33.8637 341.206 -5.00516L357.455 5.18022L348.048 22.1559C321.536 69.6877 277.065 103.639 224.042 117.219C206.083 121.463 188.979 124.01 172.73 124.01ZM107.733 69.6876C140.232 84.1169 177.006 87.5121 212.924 78.1755C248.843 68.8389 278.776 48.4681 300.156 19.6095C267.658 5.18022 230.884 1.78509 194.965 11.1217C159.902 20.4583 129.114 40.8291 107.733 69.6876Z" fill="#8BD860"/>
<path d="M330.944 101.942H290.749V81.5711C290.749 -5.85351 362.587 -78 451.529 -78V-38.1072C385.678 -38.1072 331.799 15.366 331.799 80.7223V101.942H330.944Z" fill="#8BD860"/>
</g>
</g>
</svg>
